<mxfile host="app.diagrams.net" modified="2024-02-28T12:46:18.135Z" agent="Mozilla/5.0 (Windows NT 10.0; Win64; x64) AppleWebKit/537.36 (KHTML, like Gecko) Chrome/122.0.0.0 Safari/537.36" etag="KMSkevQvaXQFerLD0HJv" version="23.1.7" type="device">
  <diagram name="Page-1" id="e7e014a7-5840-1c2e-5031-d8a46d1fe8dd">
    <mxGraphModel dx="5293" dy="3886" grid="1" gridSize="10" guides="1" tooltips="1" connect="1" arrows="1" fold="1" page="1" pageScale="1" pageWidth="1169" pageHeight="826" background="none" math="0" shadow="0">
      <root>
        <mxCell id="0" />
        <mxCell id="1" parent="0" />
        <mxCell id="3XWq_ZR8eSszFhjnecql-42" value="Destination" style="swimlane;fontStyle=1;align=center;verticalAlign=top;childLayout=stackLayout;horizontal=1;startSize=26;horizontalStack=0;resizeParent=1;resizeParentMax=0;resizeLast=0;collapsible=1;marginBottom=0;whiteSpace=wrap;html=1;" parent="1" vertex="1">
          <mxGeometry x="425" y="60" width="280" height="170" as="geometry">
            <mxRectangle x="440" y="190" width="110" height="30" as="alternateBounds" />
          </mxGeometry>
        </mxCell>
        <mxCell id="3XWq_ZR8eSszFhjnecql-43" value="- destinationName: &lt;span style=&quot;white-space: pre;&quot;&gt;&#x9;&lt;span style=&quot;white-space: pre;&quot;&gt;&#x9;&lt;/span&gt;&lt;/span&gt;String&lt;br&gt;- availableActivities: &lt;span style=&quot;white-space: pre;&quot;&gt;&#x9;&lt;/span&gt;List&amp;lt;Activity&amp;gt;" style="text;strokeColor=none;fillColor=none;align=left;verticalAlign=top;spacingLeft=4;spacingRight=4;overflow=hidden;rotatable=0;points=[[0,0.5],[1,0.5]];portConstraint=eastwest;whiteSpace=wrap;html=1;" parent="3XWq_ZR8eSszFhjnecql-42" vertex="1">
          <mxGeometry y="26" width="280" height="54" as="geometry" />
        </mxCell>
        <mxCell id="3XWq_ZR8eSszFhjnecql-44" value="" style="line;strokeWidth=1;fillColor=none;align=left;verticalAlign=middle;spacingTop=-1;spacingLeft=3;spacingRight=3;rotatable=0;labelPosition=right;points=[];portConstraint=eastwest;strokeColor=inherit;" parent="3XWq_ZR8eSszFhjnecql-42" vertex="1">
          <mxGeometry y="80" width="280" height="8" as="geometry" />
        </mxCell>
        <mxCell id="3XWq_ZR8eSszFhjnecql-45" value="+ Destination(destinationName: String)&lt;br&gt;&lt;br&gt;+ addActivity(activity: Activity): boolean&lt;br&gt;+ setAvailableActivities(availableActivities: List&amp;lt;Activity&amp;gt;)&lt;br&gt;    " style="text;strokeColor=none;fillColor=none;align=left;verticalAlign=top;spacingLeft=4;spacingRight=4;overflow=hidden;rotatable=0;points=[[0,0.5],[1,0.5]];portConstraint=eastwest;whiteSpace=wrap;html=1;" parent="3XWq_ZR8eSszFhjnecql-42" vertex="1">
          <mxGeometry y="88" width="280" height="82" as="geometry" />
        </mxCell>
        <mxCell id="3XWq_ZR8eSszFhjnecql-46" value="Activity" style="swimlane;fontStyle=1;align=center;verticalAlign=top;childLayout=stackLayout;horizontal=1;startSize=26;horizontalStack=0;resizeParent=1;resizeParentMax=0;resizeLast=0;collapsible=1;marginBottom=0;whiteSpace=wrap;html=1;" parent="1" vertex="1">
          <mxGeometry x="70" y="440" width="280" height="260" as="geometry" />
        </mxCell>
        <mxCell id="3XWq_ZR8eSszFhjnecql-47" value="- activityName: &lt;span style=&quot;white-space: pre;&quot;&gt;&#x9;&lt;/span&gt;String&lt;br&gt;    - destination: &lt;span style=&quot;white-space: pre;&quot;&gt;&#x9;&lt;/span&gt;&lt;span style=&quot;white-space: pre;&quot;&gt;&#x9;&lt;/span&gt;Destination&lt;br&gt;    - description: &lt;span style=&quot;white-space: pre;&quot;&gt;&#x9;&lt;/span&gt;&lt;span style=&quot;white-space: pre;&quot;&gt;&#x9;&lt;/span&gt;String&lt;br&gt;- cost:&amp;nbsp;&lt;span style=&quot;white-space: pre;&quot;&gt;&#x9;&lt;/span&gt;&lt;span style=&quot;white-space: pre;&quot;&gt;&#x9;&lt;/span&gt;&lt;span style=&quot;white-space: pre;&quot;&gt;&#x9;&lt;/span&gt;double&lt;br&gt;- capacity:&lt;span style=&quot;white-space: pre;&quot;&gt;&#x9;&lt;/span&gt;&lt;span style=&quot;white-space: pre;&quot;&gt;&#x9;&lt;/span&gt;int&lt;br&gt;- passengerList: &lt;span style=&quot;white-space: pre;&quot;&gt;&#x9;&lt;/span&gt;List&amp;lt;Passenger&amp;gt;&lt;span style=&quot;color: rgb(255, 255, 255); font-family: &amp;quot;SÃ¶hne Mono&amp;quot;, Monaco, &amp;quot;Andale Mono&amp;quot;, &amp;quot;Ubuntu Mono&amp;quot;, monospace; font-size: 14px; background-color: rgb(13, 13, 13);&quot;&gt;&lt;br&gt;&lt;/span&gt;" style="text;strokeColor=none;fillColor=none;align=left;verticalAlign=top;spacingLeft=4;spacingRight=4;overflow=hidden;rotatable=0;points=[[0,0.5],[1,0.5]];portConstraint=eastwest;whiteSpace=wrap;html=1;" parent="3XWq_ZR8eSszFhjnecql-46" vertex="1">
          <mxGeometry y="26" width="280" height="114" as="geometry" />
        </mxCell>
        <mxCell id="3XWq_ZR8eSszFhjnecql-48" value="" style="line;strokeWidth=1;fillColor=none;align=left;verticalAlign=middle;spacingTop=-1;spacingLeft=3;spacingRight=3;rotatable=0;labelPosition=right;points=[];portConstraint=eastwest;strokeColor=inherit;" parent="3XWq_ZR8eSszFhjnecql-46" vertex="1">
          <mxGeometry y="140" width="280" height="8" as="geometry" />
        </mxCell>
        <mxCell id="3XWq_ZR8eSszFhjnecql-49" value="+ Activity(activityName, destination, description, cost, capacity)&lt;br&gt;&lt;br&gt;+ addPassenger(passenger): boolean&lt;br&gt;+ setPassengerList(passengerList)&lt;br&gt;+ getRemainingCapacity(): int" style="text;strokeColor=none;fillColor=none;align=left;verticalAlign=top;spacingLeft=4;spacingRight=4;overflow=hidden;rotatable=0;points=[[0,0.5],[1,0.5]];portConstraint=eastwest;whiteSpace=wrap;html=1;" parent="3XWq_ZR8eSszFhjnecql-46" vertex="1">
          <mxGeometry y="148" width="280" height="112" as="geometry" />
        </mxCell>
        <mxCell id="3XWq_ZR8eSszFhjnecql-50" value="&amp;nbsp;(abstract) Passenger" style="swimlane;fontStyle=1;align=center;verticalAlign=top;childLayout=stackLayout;horizontal=1;startSize=26;horizontalStack=0;resizeParent=1;resizeParentMax=0;resizeLast=0;collapsible=1;marginBottom=0;whiteSpace=wrap;html=1;" parent="1" vertex="1">
          <mxGeometry x="425" y="300" width="280" height="300" as="geometry" />
        </mxCell>
        <mxCell id="3XWq_ZR8eSszFhjnecql-51" value="- passengerName: &lt;span style=&quot;white-space: pre;&quot;&gt;&#x9;&lt;/span&gt;&lt;span style=&quot;white-space: pre;&quot;&gt;&#x9;&lt;/span&gt;String&lt;br&gt;- passengerNumber: &lt;span style=&quot;white-space: pre;&quot;&gt;&#x9;&lt;/span&gt;double&lt;br&gt;- type: &lt;span style=&quot;white-space: pre;&quot;&gt;&#x9;&lt;/span&gt;&lt;span style=&quot;white-space: pre;&quot;&gt;&#x9;&lt;/span&gt;&lt;span style=&quot;white-space: pre;&quot;&gt;&#x9;&lt;/span&gt;&lt;span style=&quot;white-space: pre;&quot;&gt;&#x9;&lt;/span&gt;PassengerType&lt;br&gt;- currentBalance: &lt;span style=&quot;white-space: pre;&quot;&gt;&#x9;&lt;/span&gt;&lt;span style=&quot;white-space: pre;&quot;&gt;&#x9;&lt;/span&gt;double&lt;br&gt;- enrolledPackage: &lt;span style=&quot;white-space: pre;&quot;&gt;&#x9;&lt;/span&gt;&lt;span style=&quot;white-space: pre;&quot;&gt;&#x9;&lt;/span&gt;TourPackage" style="text;strokeColor=none;fillColor=none;align=left;verticalAlign=top;spacingLeft=4;spacingRight=4;overflow=hidden;rotatable=0;points=[[0,0.5],[1,0.5]];portConstraint=eastwest;whiteSpace=wrap;html=1;" parent="3XWq_ZR8eSszFhjnecql-50" vertex="1">
          <mxGeometry y="26" width="280" height="104" as="geometry" />
        </mxCell>
        <mxCell id="3XWq_ZR8eSszFhjnecql-52" value="" style="line;strokeWidth=1;fillColor=none;align=left;verticalAlign=middle;spacingTop=-1;spacingLeft=3;spacingRight=3;rotatable=0;labelPosition=right;points=[];portConstraint=eastwest;strokeColor=inherit;" parent="3XWq_ZR8eSszFhjnecql-50" vertex="1">
          <mxGeometry y="130" width="280" height="8" as="geometry" />
        </mxCell>
        <mxCell id="3XWq_ZR8eSszFhjnecql-53" value="+ Passenger(passengerName,&amp;nbsp; passengerNumber, currentBalance, type)&lt;br&gt;&lt;br&gt;+ enrollTourPackage(tourPackage)&lt;br&gt;    + setCurrentBalance(currentBalance)&lt;br&gt; + getCurrentBalance():&lt;br&gt; + getType(): PassengerType&lt;br&gt;    + getEnrolledPackage(): TourPackage&lt;br&gt;    + getEnrolledActivities(): List&amp;lt;Activity&amp;gt;&lt;div&gt;&lt;br&gt;&lt;/div&gt;" style="text;strokeColor=none;fillColor=none;align=left;verticalAlign=top;spacingLeft=4;spacingRight=4;overflow=hidden;rotatable=0;points=[[0,0.5],[1,0.5]];portConstraint=eastwest;whiteSpace=wrap;html=1;" parent="3XWq_ZR8eSszFhjnecql-50" vertex="1">
          <mxGeometry y="138" width="280" height="162" as="geometry" />
        </mxCell>
        <mxCell id="3XWq_ZR8eSszFhjnecql-55" value="TourPackage" style="swimlane;fontStyle=1;align=center;verticalAlign=top;childLayout=stackLayout;horizontal=1;startSize=26;horizontalStack=0;resizeParent=1;resizeParentMax=0;resizeLast=0;collapsible=1;marginBottom=0;whiteSpace=wrap;html=1;" parent="1" vertex="1">
          <mxGeometry x="70" y="80" width="280" height="300" as="geometry" />
        </mxCell>
        <mxCell id="3XWq_ZR8eSszFhjnecql-56" value="&lt;p style=&quot;border-color: var(--border-color); margin: 0px 0px 0px 4px;&quot;&gt;- packagename:&amp;nbsp;&lt;span style=&quot;white-space: pre;&quot;&gt;&amp;nbsp;&amp;nbsp;&amp;nbsp;&amp;nbsp;&lt;span style=&quot;white-space: pre;&quot;&gt;&#x9;&lt;/span&gt;&lt;span style=&quot;white-space: pre;&quot;&gt;&#x9;&lt;/span&gt;&lt;/span&gt;&lt;span style=&quot;border-color: var(--border-color);&quot;&gt;&lt;/span&gt;string&lt;/p&gt;&lt;p style=&quot;border-color: var(--border-color); margin: 0px 0px 0px 4px;&quot;&gt;- passengerCapacity:&amp;nbsp;&lt;span style=&quot;border-color: var(--border-color);&quot;&gt;&lt;span style=&quot;white-space: pre;&quot;&gt;&amp;nbsp;&amp;nbsp;&amp;nbsp;&amp;nbsp;&lt;span style=&quot;white-space: pre;&quot;&gt;&#x9;&lt;/span&gt;&lt;/span&gt;&lt;/span&gt;int&lt;/p&gt;&lt;p style=&quot;border-color: var(--border-color); margin: 0px 0px 0px 4px;&quot;&gt;- itenerary :&amp;nbsp;&lt;span style=&quot;border-color: var(--border-color);&quot;&gt;&lt;span style=&quot;white-space: pre;&quot;&gt;&amp;nbsp;&amp;nbsp;&amp;nbsp;&amp;nbsp;&lt;/span&gt;&lt;/span&gt;&lt;span style=&quot;border-color: var(--border-color);&quot;&gt;&lt;span style=&quot;white-space: pre;&quot;&gt;&amp;nbsp;&amp;nbsp;&amp;nbsp;&amp;nbsp;&lt;/span&gt;&lt;/span&gt;&lt;span style=&quot;border-color: var(--border-color);&quot;&gt;&lt;span style=&quot;white-space: pre;&quot;&gt;&amp;nbsp;&amp;nbsp;&amp;nbsp;&amp;nbsp;&lt;span style=&quot;white-space: pre;&quot;&gt;&#x9;&lt;/span&gt;&lt;span style=&quot;white-space: pre;&quot;&gt;&#x9;&lt;/span&gt;&lt;/span&gt;&lt;/span&gt;List&amp;lt;Destination&amp;gt;&lt;/p&gt;&lt;p style=&quot;border-color: var(--border-color); margin: 0px 0px 0px 4px;&quot;&gt;- passengerList:&amp;nbsp;&lt;span style=&quot;border-color: var(--border-color);&quot;&gt;&lt;span style=&quot;white-space: pre;&quot;&gt;&amp;nbsp;&amp;nbsp;&amp;nbsp;&amp;nbsp;&lt;/span&gt;&lt;/span&gt;&lt;span style=&quot;border-color: var(--border-color);&quot;&gt;&lt;span style=&quot;white-space: pre;&quot;&gt;&amp;nbsp;&amp;nbsp;&amp;nbsp;&amp;nbsp;&lt;span style=&quot;white-space: pre;&quot;&gt;&#x9;&lt;/span&gt;&lt;/span&gt;&lt;/span&gt;List&amp;lt;Passenger&amp;gt;&lt;/p&gt;" style="text;strokeColor=none;fillColor=none;align=left;verticalAlign=top;spacingLeft=4;spacingRight=4;overflow=hidden;rotatable=0;points=[[0,0.5],[1,0.5]];portConstraint=eastwest;whiteSpace=wrap;html=1;" parent="3XWq_ZR8eSszFhjnecql-55" vertex="1">
          <mxGeometry y="26" width="280" height="94" as="geometry" />
        </mxCell>
        <mxCell id="3XWq_ZR8eSszFhjnecql-57" value="" style="line;strokeWidth=1;fillColor=none;align=left;verticalAlign=middle;spacingTop=-1;spacingLeft=3;spacingRight=3;rotatable=0;labelPosition=right;points=[];portConstraint=eastwest;strokeColor=inherit;" parent="3XWq_ZR8eSszFhjnecql-55" vertex="1">
          <mxGeometry y="120" width="280" height="8" as="geometry" />
        </mxCell>
        <mxCell id="3XWq_ZR8eSszFhjnecql-58" value="&lt;p style=&quot;border-color: var(--border-color); margin: 0px 0px 0px 4px;&quot;&gt;+ TourPackage (packageName,&lt;/p&gt;passengerCapacity, itenerary)&lt;br style=&quot;border-color: var(--border-color);&quot;&gt;&lt;br style=&quot;border-color: var(--border-color);&quot;&gt;&amp;nbsp;+ addpassenger(Passenger) : boolean&lt;br style=&quot;border-color: var(--border-color);&quot;&gt;&amp;nbsp;+ setpassengerList(passengerList)&lt;br style=&quot;border-color: var(--border-color);&quot;&gt;&amp;nbsp;+ getReamainingCapacity() : int&lt;br style=&quot;border-color: var(--border-color);&quot;&gt;&amp;nbsp;+ getpackageName() : string&lt;br style=&quot;border-color: var(--border-color);&quot;&gt;&amp;nbsp;+ getpassengerCapacity() : int&lt;br style=&quot;border-color: var(--border-color);&quot;&gt;&amp;nbsp;+ getitenerary() : List&amp;lt;Destination&amp;gt;&lt;br style=&quot;border-color: var(--border-color);&quot;&gt;&amp;nbsp;+ getpassengerList() : List&amp;lt;Passenger&amp;gt;" style="text;strokeColor=none;fillColor=none;align=left;verticalAlign=top;spacingLeft=4;spacingRight=4;overflow=hidden;rotatable=0;points=[[0,0.5],[1,0.5]];portConstraint=eastwest;whiteSpace=wrap;html=1;" parent="3XWq_ZR8eSszFhjnecql-55" vertex="1">
          <mxGeometry y="128" width="280" height="172" as="geometry" />
        </mxCell>
        <mxCell id="sInDDDxYRzVQICZMeEuo-1" value="(enum) PassengerType" style="swimlane;fontStyle=0;childLayout=stackLayout;horizontal=1;startSize=26;fillColor=none;horizontalStack=0;resizeParent=1;resizeParentMax=0;resizeLast=0;collapsible=1;marginBottom=0;whiteSpace=wrap;html=1;" vertex="1" parent="1">
          <mxGeometry x="425" y="650" width="280" height="90" as="geometry" />
        </mxCell>
        <mxCell id="sInDDDxYRzVQICZMeEuo-3" value="+ STANDARD&lt;br&gt;+ GOLD&lt;br&gt;+ PREMIUM" style="text;strokeColor=none;fillColor=none;align=left;verticalAlign=top;spacingLeft=4;spacingRight=4;overflow=hidden;rotatable=0;points=[[0,0.5],[1,0.5]];portConstraint=eastwest;whiteSpace=wrap;html=1;" vertex="1" parent="sInDDDxYRzVQICZMeEuo-1">
          <mxGeometry y="26" width="280" height="64" as="geometry" />
        </mxCell>
        <mxCell id="sInDDDxYRzVQICZMeEuo-5" value="TourPackage" style="html=1;whiteSpace=wrap;" vertex="1" parent="1">
          <mxGeometry x="1290" y="210" width="180" height="90" as="geometry" />
        </mxCell>
        <mxCell id="sInDDDxYRzVQICZMeEuo-7" value="Destination" style="html=1;whiteSpace=wrap;" vertex="1" parent="1">
          <mxGeometry x="1630" y="210" width="180" height="90" as="geometry" />
        </mxCell>
        <mxCell id="sInDDDxYRzVQICZMeEuo-8" value="Activity" style="html=1;whiteSpace=wrap;" vertex="1" parent="1">
          <mxGeometry x="1990" y="210" width="180" height="90" as="geometry" />
        </mxCell>
        <mxCell id="sInDDDxYRzVQICZMeEuo-9" value="Passenger" style="html=1;whiteSpace=wrap;" vertex="1" parent="1">
          <mxGeometry x="1630" y="450" width="180" height="90" as="geometry" />
        </mxCell>
        <mxCell id="sInDDDxYRzVQICZMeEuo-30" value="" style="fontSize=12;html=1;endArrow=ERzeroToMany;startArrow=ERzeroToOne;rounded=0;exitX=0.5;exitY=1;exitDx=0;exitDy=0;entryX=0;entryY=0.5;entryDx=0;entryDy=0;edgeStyle=orthogonalEdgeStyle;startFill=0;" edge="1" parent="1" source="sInDDDxYRzVQICZMeEuo-5" target="sInDDDxYRzVQICZMeEuo-9">
          <mxGeometry width="100" height="100" relative="1" as="geometry">
            <mxPoint x="1300" y="520" as="sourcePoint" />
            <mxPoint x="1580" y="680" as="targetPoint" />
          </mxGeometry>
        </mxCell>
        <mxCell id="sInDDDxYRzVQICZMeEuo-31" value="" style="edgeStyle=entityRelationEdgeStyle;fontSize=12;html=1;endArrow=ERoneToMany;startArrow=ERoneToMany;rounded=0;entryX=0;entryY=0.5;entryDx=0;entryDy=0;exitX=1;exitY=0.5;exitDx=0;exitDy=0;" edge="1" parent="1" source="sInDDDxYRzVQICZMeEuo-5" target="sInDDDxYRzVQICZMeEuo-7">
          <mxGeometry width="100" height="100" relative="1" as="geometry">
            <mxPoint x="1530" y="370" as="sourcePoint" />
            <mxPoint x="1630" y="270" as="targetPoint" />
          </mxGeometry>
        </mxCell>
        <mxCell id="sInDDDxYRzVQICZMeEuo-32" value="" style="edgeStyle=entityRelationEdgeStyle;fontSize=12;html=1;endArrow=ERoneToMany;startArrow=ERmandOne;rounded=0;exitX=1;exitY=0.5;exitDx=0;exitDy=0;entryX=0;entryY=0.5;entryDx=0;entryDy=0;" edge="1" parent="1" source="sInDDDxYRzVQICZMeEuo-7" target="sInDDDxYRzVQICZMeEuo-8">
          <mxGeometry width="100" height="100" relative="1" as="geometry">
            <mxPoint x="1570" y="500" as="sourcePoint" />
            <mxPoint x="1690" y="410" as="targetPoint" />
            <Array as="points">
              <mxPoint x="1990" y="265" />
            </Array>
          </mxGeometry>
        </mxCell>
        <mxCell id="sInDDDxYRzVQICZMeEuo-33" value="" style="edgeStyle=orthogonalEdgeStyle;fontSize=12;html=1;endArrow=ERzeroToMany;endFill=1;rounded=0;entryX=1;entryY=0.5;entryDx=0;entryDy=0;exitX=0.5;exitY=1;exitDx=0;exitDy=0;" edge="1" parent="1" source="sInDDDxYRzVQICZMeEuo-8" target="sInDDDxYRzVQICZMeEuo-9">
          <mxGeometry width="100" height="100" relative="1" as="geometry">
            <mxPoint x="1930" y="523" as="sourcePoint" />
            <mxPoint x="2010" y="430" as="targetPoint" />
          </mxGeometry>
        </mxCell>
        <mxCell id="sInDDDxYRzVQICZMeEuo-34" value="&lt;font style=&quot;font-size: 33px;&quot;&gt;&lt;b&gt;&lt;i&gt;IL VIAGGIO&amp;nbsp;&lt;/i&gt;&lt;/b&gt;&lt;/font&gt;" style="text;html=1;align=center;verticalAlign=middle;whiteSpace=wrap;rounded=0;" vertex="1" parent="1">
          <mxGeometry x="1590" y="-730" width="240" height="80" as="geometry" />
        </mxCell>
        <mxCell id="sInDDDxYRzVQICZMeEuo-35" value="&lt;font style=&quot;font-size: 33px;&quot;&gt;UML class Diagrams&lt;/font&gt;" style="text;html=1;align=center;verticalAlign=middle;whiteSpace=wrap;rounded=0;" vertex="1" parent="1">
          <mxGeometry x="460" y="-280" width="250" height="100" as="geometry" />
        </mxCell>
        <mxCell id="sInDDDxYRzVQICZMeEuo-36" value="&lt;font style=&quot;font-size: 33px;&quot;&gt;Entity Relationship Diagram&lt;/font&gt;" style="text;html=1;align=center;verticalAlign=middle;whiteSpace=wrap;rounded=0;" vertex="1" parent="1">
          <mxGeometry x="1629" y="-295" width="250" height="130" as="geometry" />
        </mxCell>
        <mxCell id="sInDDDxYRzVQICZMeEuo-38" value="Tourpackage" style="shape=table;startSize=50;container=1;collapsible=1;childLayout=tableLayout;fixedRows=1;rowLines=0;fontStyle=1;align=center;resizeLast=1;html=1;whiteSpace=wrap;" vertex="1" parent="1">
          <mxGeometry x="2680.14" y="470" width="180" height="170" as="geometry" />
        </mxCell>
        <mxCell id="sInDDDxYRzVQICZMeEuo-39" value="" style="shape=tableRow;horizontal=0;startSize=0;swimlaneHead=0;swimlaneBody=0;fillColor=none;collapsible=0;dropTarget=0;points=[[0,0.5],[1,0.5]];portConstraint=eastwest;top=0;left=0;right=0;bottom=0;html=1;" vertex="1" parent="sInDDDxYRzVQICZMeEuo-38">
          <mxGeometry y="50" width="180" height="30" as="geometry" />
        </mxCell>
        <mxCell id="sInDDDxYRzVQICZMeEuo-40" value="PK" style="shape=partialRectangle;connectable=0;fillColor=none;top=0;left=0;bottom=0;right=0;fontStyle=1;overflow=hidden;html=1;whiteSpace=wrap;" vertex="1" parent="sInDDDxYRzVQICZMeEuo-39">
          <mxGeometry width="60" height="30" as="geometry">
            <mxRectangle width="60" height="30" as="alternateBounds" />
          </mxGeometry>
        </mxCell>
        <mxCell id="sInDDDxYRzVQICZMeEuo-41" value="PackageName" style="shape=partialRectangle;connectable=0;fillColor=none;top=0;left=0;bottom=0;right=0;align=left;spacingLeft=6;fontStyle=5;overflow=hidden;html=1;whiteSpace=wrap;" vertex="1" parent="sInDDDxYRzVQICZMeEuo-39">
          <mxGeometry x="60" width="120" height="30" as="geometry">
            <mxRectangle width="120" height="30" as="alternateBounds" />
          </mxGeometry>
        </mxCell>
        <mxCell id="sInDDDxYRzVQICZMeEuo-42" value="" style="shape=tableRow;horizontal=0;startSize=0;swimlaneHead=0;swimlaneBody=0;fillColor=none;collapsible=0;dropTarget=0;points=[[0,0.5],[1,0.5]];portConstraint=eastwest;top=0;left=0;right=0;bottom=1;html=1;" vertex="1" parent="sInDDDxYRzVQICZMeEuo-38">
          <mxGeometry y="80" width="180" height="30" as="geometry" />
        </mxCell>
        <mxCell id="sInDDDxYRzVQICZMeEuo-43" value="" style="shape=partialRectangle;connectable=0;fillColor=none;top=0;left=0;bottom=0;right=0;fontStyle=1;overflow=hidden;html=1;whiteSpace=wrap;" vertex="1" parent="sInDDDxYRzVQICZMeEuo-42">
          <mxGeometry width="60" height="30" as="geometry">
            <mxRectangle width="60" height="30" as="alternateBounds" />
          </mxGeometry>
        </mxCell>
        <mxCell id="sInDDDxYRzVQICZMeEuo-44" value="Capacity" style="shape=partialRectangle;connectable=0;fillColor=none;top=0;left=0;bottom=0;right=0;align=left;spacingLeft=6;fontStyle=5;overflow=hidden;html=1;whiteSpace=wrap;" vertex="1" parent="sInDDDxYRzVQICZMeEuo-42">
          <mxGeometry x="60" width="120" height="30" as="geometry">
            <mxRectangle width="120" height="30" as="alternateBounds" />
          </mxGeometry>
        </mxCell>
        <mxCell id="sInDDDxYRzVQICZMeEuo-45" value="" style="shape=tableRow;horizontal=0;startSize=0;swimlaneHead=0;swimlaneBody=0;fillColor=none;collapsible=0;dropTarget=0;points=[[0,0.5],[1,0.5]];portConstraint=eastwest;top=0;left=0;right=0;bottom=0;html=1;" vertex="1" parent="sInDDDxYRzVQICZMeEuo-38">
          <mxGeometry y="110" width="180" height="30" as="geometry" />
        </mxCell>
        <mxCell id="sInDDDxYRzVQICZMeEuo-46" value="" style="shape=partialRectangle;connectable=0;fillColor=none;top=0;left=0;bottom=0;right=0;editable=1;overflow=hidden;html=1;whiteSpace=wrap;" vertex="1" parent="sInDDDxYRzVQICZMeEuo-45">
          <mxGeometry width="60" height="30" as="geometry">
            <mxRectangle width="60" height="30" as="alternateBounds" />
          </mxGeometry>
        </mxCell>
        <mxCell id="sInDDDxYRzVQICZMeEuo-47" value="" style="shape=partialRectangle;connectable=0;fillColor=none;top=0;left=0;bottom=0;right=0;align=left;spacingLeft=6;overflow=hidden;html=1;whiteSpace=wrap;" vertex="1" parent="sInDDDxYRzVQICZMeEuo-45">
          <mxGeometry x="60" width="120" height="30" as="geometry">
            <mxRectangle width="120" height="30" as="alternateBounds" />
          </mxGeometry>
        </mxCell>
        <mxCell id="sInDDDxYRzVQICZMeEuo-48" value="" style="shape=tableRow;horizontal=0;startSize=0;swimlaneHead=0;swimlaneBody=0;fillColor=none;collapsible=0;dropTarget=0;points=[[0,0.5],[1,0.5]];portConstraint=eastwest;top=0;left=0;right=0;bottom=0;html=1;" vertex="1" parent="sInDDDxYRzVQICZMeEuo-38">
          <mxGeometry y="140" width="180" height="30" as="geometry" />
        </mxCell>
        <mxCell id="sInDDDxYRzVQICZMeEuo-49" value="" style="shape=partialRectangle;connectable=0;fillColor=none;top=0;left=0;bottom=0;right=0;editable=1;overflow=hidden;html=1;whiteSpace=wrap;" vertex="1" parent="sInDDDxYRzVQICZMeEuo-48">
          <mxGeometry width="60" height="30" as="geometry">
            <mxRectangle width="60" height="30" as="alternateBounds" />
          </mxGeometry>
        </mxCell>
        <mxCell id="sInDDDxYRzVQICZMeEuo-50" value="" style="shape=partialRectangle;connectable=0;fillColor=none;top=0;left=0;bottom=0;right=0;align=left;spacingLeft=6;overflow=hidden;html=1;whiteSpace=wrap;" vertex="1" parent="sInDDDxYRzVQICZMeEuo-48">
          <mxGeometry x="60" width="120" height="30" as="geometry">
            <mxRectangle width="120" height="30" as="alternateBounds" />
          </mxGeometry>
        </mxCell>
        <mxCell id="sInDDDxYRzVQICZMeEuo-64" value="TourPackageDestinations" style="shape=table;startSize=50;container=1;collapsible=1;childLayout=tableLayout;fixedRows=1;rowLines=0;fontStyle=1;align=center;resizeLast=1;html=1;whiteSpace=wrap;" vertex="1" parent="1">
          <mxGeometry x="2930.14" y="470" width="180" height="170" as="geometry" />
        </mxCell>
        <mxCell id="sInDDDxYRzVQICZMeEuo-65" value="" style="shape=tableRow;horizontal=0;startSize=0;swimlaneHead=0;swimlaneBody=0;fillColor=none;collapsible=0;dropTarget=0;points=[[0,0.5],[1,0.5]];portConstraint=eastwest;top=0;left=0;right=0;bottom=0;html=1;" vertex="1" parent="sInDDDxYRzVQICZMeEuo-64">
          <mxGeometry y="50" width="180" height="30" as="geometry" />
        </mxCell>
        <mxCell id="sInDDDxYRzVQICZMeEuo-66" value="PK,FK" style="shape=partialRectangle;connectable=0;fillColor=none;top=0;left=0;bottom=0;right=0;fontStyle=1;overflow=hidden;html=1;whiteSpace=wrap;" vertex="1" parent="sInDDDxYRzVQICZMeEuo-65">
          <mxGeometry width="60" height="30" as="geometry">
            <mxRectangle width="60" height="30" as="alternateBounds" />
          </mxGeometry>
        </mxCell>
        <mxCell id="sInDDDxYRzVQICZMeEuo-67" value="PackageName" style="shape=partialRectangle;connectable=0;fillColor=none;top=0;left=0;bottom=0;right=0;align=left;spacingLeft=6;fontStyle=5;overflow=hidden;html=1;whiteSpace=wrap;" vertex="1" parent="sInDDDxYRzVQICZMeEuo-65">
          <mxGeometry x="60" width="120" height="30" as="geometry">
            <mxRectangle width="120" height="30" as="alternateBounds" />
          </mxGeometry>
        </mxCell>
        <mxCell id="sInDDDxYRzVQICZMeEuo-68" value="" style="shape=tableRow;horizontal=0;startSize=0;swimlaneHead=0;swimlaneBody=0;fillColor=none;collapsible=0;dropTarget=0;points=[[0,0.5],[1,0.5]];portConstraint=eastwest;top=0;left=0;right=0;bottom=1;html=1;" vertex="1" parent="sInDDDxYRzVQICZMeEuo-64">
          <mxGeometry y="80" width="180" height="30" as="geometry" />
        </mxCell>
        <mxCell id="sInDDDxYRzVQICZMeEuo-69" value="PK,FK" style="shape=partialRectangle;connectable=0;fillColor=none;top=0;left=0;bottom=0;right=0;fontStyle=1;overflow=hidden;html=1;whiteSpace=wrap;" vertex="1" parent="sInDDDxYRzVQICZMeEuo-68">
          <mxGeometry width="60" height="30" as="geometry">
            <mxRectangle width="60" height="30" as="alternateBounds" />
          </mxGeometry>
        </mxCell>
        <mxCell id="sInDDDxYRzVQICZMeEuo-70" value="DestinationName" style="shape=partialRectangle;connectable=0;fillColor=none;top=0;left=0;bottom=0;right=0;align=left;spacingLeft=6;fontStyle=5;overflow=hidden;html=1;whiteSpace=wrap;" vertex="1" parent="sInDDDxYRzVQICZMeEuo-68">
          <mxGeometry x="60" width="120" height="30" as="geometry">
            <mxRectangle width="120" height="30" as="alternateBounds" />
          </mxGeometry>
        </mxCell>
        <mxCell id="sInDDDxYRzVQICZMeEuo-71" value="" style="shape=tableRow;horizontal=0;startSize=0;swimlaneHead=0;swimlaneBody=0;fillColor=none;collapsible=0;dropTarget=0;points=[[0,0.5],[1,0.5]];portConstraint=eastwest;top=0;left=0;right=0;bottom=0;html=1;" vertex="1" parent="sInDDDxYRzVQICZMeEuo-64">
          <mxGeometry y="110" width="180" height="30" as="geometry" />
        </mxCell>
        <mxCell id="sInDDDxYRzVQICZMeEuo-72" value="" style="shape=partialRectangle;connectable=0;fillColor=none;top=0;left=0;bottom=0;right=0;editable=1;overflow=hidden;html=1;whiteSpace=wrap;" vertex="1" parent="sInDDDxYRzVQICZMeEuo-71">
          <mxGeometry width="60" height="30" as="geometry">
            <mxRectangle width="60" height="30" as="alternateBounds" />
          </mxGeometry>
        </mxCell>
        <mxCell id="sInDDDxYRzVQICZMeEuo-73" value="" style="shape=partialRectangle;connectable=0;fillColor=none;top=0;left=0;bottom=0;right=0;align=left;spacingLeft=6;overflow=hidden;html=1;whiteSpace=wrap;" vertex="1" parent="sInDDDxYRzVQICZMeEuo-71">
          <mxGeometry x="60" width="120" height="30" as="geometry">
            <mxRectangle width="120" height="30" as="alternateBounds" />
          </mxGeometry>
        </mxCell>
        <mxCell id="sInDDDxYRzVQICZMeEuo-74" value="" style="shape=tableRow;horizontal=0;startSize=0;swimlaneHead=0;swimlaneBody=0;fillColor=none;collapsible=0;dropTarget=0;points=[[0,0.5],[1,0.5]];portConstraint=eastwest;top=0;left=0;right=0;bottom=0;html=1;" vertex="1" parent="sInDDDxYRzVQICZMeEuo-64">
          <mxGeometry y="140" width="180" height="30" as="geometry" />
        </mxCell>
        <mxCell id="sInDDDxYRzVQICZMeEuo-75" value="" style="shape=partialRectangle;connectable=0;fillColor=none;top=0;left=0;bottom=0;right=0;editable=1;overflow=hidden;html=1;whiteSpace=wrap;" vertex="1" parent="sInDDDxYRzVQICZMeEuo-74">
          <mxGeometry width="60" height="30" as="geometry">
            <mxRectangle width="60" height="30" as="alternateBounds" />
          </mxGeometry>
        </mxCell>
        <mxCell id="sInDDDxYRzVQICZMeEuo-76" value="" style="shape=partialRectangle;connectable=0;fillColor=none;top=0;left=0;bottom=0;right=0;align=left;spacingLeft=6;overflow=hidden;html=1;whiteSpace=wrap;" vertex="1" parent="sInDDDxYRzVQICZMeEuo-74">
          <mxGeometry x="60" width="120" height="30" as="geometry">
            <mxRectangle width="120" height="30" as="alternateBounds" />
          </mxGeometry>
        </mxCell>
        <mxCell id="sInDDDxYRzVQICZMeEuo-100" value="Activity" style="shape=table;startSize=50;container=1;collapsible=1;childLayout=tableLayout;fixedRows=1;rowLines=0;fontStyle=1;align=center;resizeLast=1;html=1;whiteSpace=wrap;" vertex="1" parent="1">
          <mxGeometry x="3210.14" y="100" width="180" height="170" as="geometry" />
        </mxCell>
        <mxCell id="sInDDDxYRzVQICZMeEuo-101" value="" style="shape=tableRow;horizontal=0;startSize=0;swimlaneHead=0;swimlaneBody=0;fillColor=none;collapsible=0;dropTarget=0;points=[[0,0.5],[1,0.5]];portConstraint=eastwest;top=0;left=0;right=0;bottom=0;html=1;" vertex="1" parent="sInDDDxYRzVQICZMeEuo-100">
          <mxGeometry y="50" width="180" height="30" as="geometry" />
        </mxCell>
        <mxCell id="sInDDDxYRzVQICZMeEuo-102" value="PK" style="shape=partialRectangle;connectable=0;fillColor=none;top=0;left=0;bottom=0;right=0;fontStyle=1;overflow=hidden;html=1;whiteSpace=wrap;" vertex="1" parent="sInDDDxYRzVQICZMeEuo-101">
          <mxGeometry width="60" height="30" as="geometry">
            <mxRectangle width="60" height="30" as="alternateBounds" />
          </mxGeometry>
        </mxCell>
        <mxCell id="sInDDDxYRzVQICZMeEuo-103" value="ActivityName" style="shape=partialRectangle;connectable=0;fillColor=none;top=0;left=0;bottom=0;right=0;align=left;spacingLeft=6;fontStyle=5;overflow=hidden;html=1;whiteSpace=wrap;" vertex="1" parent="sInDDDxYRzVQICZMeEuo-101">
          <mxGeometry x="60" width="120" height="30" as="geometry">
            <mxRectangle width="120" height="30" as="alternateBounds" />
          </mxGeometry>
        </mxCell>
        <mxCell id="sInDDDxYRzVQICZMeEuo-104" value="" style="shape=tableRow;horizontal=0;startSize=0;swimlaneHead=0;swimlaneBody=0;fillColor=none;collapsible=0;dropTarget=0;points=[[0,0.5],[1,0.5]];portConstraint=eastwest;top=0;left=0;right=0;bottom=1;html=1;" vertex="1" parent="sInDDDxYRzVQICZMeEuo-100">
          <mxGeometry y="80" width="180" height="30" as="geometry" />
        </mxCell>
        <mxCell id="sInDDDxYRzVQICZMeEuo-105" value="FK" style="shape=partialRectangle;connectable=0;fillColor=none;top=0;left=0;bottom=0;right=0;fontStyle=1;overflow=hidden;html=1;whiteSpace=wrap;" vertex="1" parent="sInDDDxYRzVQICZMeEuo-104">
          <mxGeometry width="60" height="30" as="geometry">
            <mxRectangle width="60" height="30" as="alternateBounds" />
          </mxGeometry>
        </mxCell>
        <mxCell id="sInDDDxYRzVQICZMeEuo-106" value="DestinationName" style="shape=partialRectangle;connectable=0;fillColor=none;top=0;left=0;bottom=0;right=0;align=left;spacingLeft=6;fontStyle=5;overflow=hidden;html=1;whiteSpace=wrap;" vertex="1" parent="sInDDDxYRzVQICZMeEuo-104">
          <mxGeometry x="60" width="120" height="30" as="geometry">
            <mxRectangle width="120" height="30" as="alternateBounds" />
          </mxGeometry>
        </mxCell>
        <mxCell id="sInDDDxYRzVQICZMeEuo-107" value="" style="shape=tableRow;horizontal=0;startSize=0;swimlaneHead=0;swimlaneBody=0;fillColor=none;collapsible=0;dropTarget=0;points=[[0,0.5],[1,0.5]];portConstraint=eastwest;top=0;left=0;right=0;bottom=0;html=1;" vertex="1" parent="sInDDDxYRzVQICZMeEuo-100">
          <mxGeometry y="110" width="180" height="30" as="geometry" />
        </mxCell>
        <mxCell id="sInDDDxYRzVQICZMeEuo-108" value="" style="shape=partialRectangle;connectable=0;fillColor=none;top=0;left=0;bottom=0;right=0;editable=1;overflow=hidden;html=1;whiteSpace=wrap;" vertex="1" parent="sInDDDxYRzVQICZMeEuo-107">
          <mxGeometry width="60" height="30" as="geometry">
            <mxRectangle width="60" height="30" as="alternateBounds" />
          </mxGeometry>
        </mxCell>
        <mxCell id="sInDDDxYRzVQICZMeEuo-109" value="cost" style="shape=partialRectangle;connectable=0;fillColor=none;top=0;left=0;bottom=0;right=0;align=left;spacingLeft=6;overflow=hidden;html=1;whiteSpace=wrap;" vertex="1" parent="sInDDDxYRzVQICZMeEuo-107">
          <mxGeometry x="60" width="120" height="30" as="geometry">
            <mxRectangle width="120" height="30" as="alternateBounds" />
          </mxGeometry>
        </mxCell>
        <mxCell id="sInDDDxYRzVQICZMeEuo-110" value="" style="shape=tableRow;horizontal=0;startSize=0;swimlaneHead=0;swimlaneBody=0;fillColor=none;collapsible=0;dropTarget=0;points=[[0,0.5],[1,0.5]];portConstraint=eastwest;top=0;left=0;right=0;bottom=0;html=1;" vertex="1" parent="sInDDDxYRzVQICZMeEuo-100">
          <mxGeometry y="140" width="180" height="30" as="geometry" />
        </mxCell>
        <mxCell id="sInDDDxYRzVQICZMeEuo-111" value="" style="shape=partialRectangle;connectable=0;fillColor=none;top=0;left=0;bottom=0;right=0;editable=1;overflow=hidden;html=1;whiteSpace=wrap;" vertex="1" parent="sInDDDxYRzVQICZMeEuo-110">
          <mxGeometry width="60" height="30" as="geometry">
            <mxRectangle width="60" height="30" as="alternateBounds" />
          </mxGeometry>
        </mxCell>
        <mxCell id="sInDDDxYRzVQICZMeEuo-112" value="capacity" style="shape=partialRectangle;connectable=0;fillColor=none;top=0;left=0;bottom=0;right=0;align=left;spacingLeft=6;overflow=hidden;html=1;whiteSpace=wrap;" vertex="1" parent="sInDDDxYRzVQICZMeEuo-110">
          <mxGeometry x="60" width="120" height="30" as="geometry">
            <mxRectangle width="120" height="30" as="alternateBounds" />
          </mxGeometry>
        </mxCell>
        <mxCell id="sInDDDxYRzVQICZMeEuo-113" value="ActivityPassengers" style="shape=table;startSize=50;container=1;collapsible=1;childLayout=tableLayout;fixedRows=1;rowLines=0;fontStyle=1;align=center;resizeLast=1;html=1;whiteSpace=wrap;" vertex="1" parent="1">
          <mxGeometry x="2800.14" y="100" width="180" height="170" as="geometry" />
        </mxCell>
        <mxCell id="sInDDDxYRzVQICZMeEuo-114" value="" style="shape=tableRow;horizontal=0;startSize=0;swimlaneHead=0;swimlaneBody=0;fillColor=none;collapsible=0;dropTarget=0;points=[[0,0.5],[1,0.5]];portConstraint=eastwest;top=0;left=0;right=0;bottom=0;html=1;" vertex="1" parent="sInDDDxYRzVQICZMeEuo-113">
          <mxGeometry y="50" width="180" height="30" as="geometry" />
        </mxCell>
        <mxCell id="sInDDDxYRzVQICZMeEuo-115" value="PK,FK" style="shape=partialRectangle;connectable=0;fillColor=none;top=0;left=0;bottom=0;right=0;fontStyle=1;overflow=hidden;html=1;whiteSpace=wrap;" vertex="1" parent="sInDDDxYRzVQICZMeEuo-114">
          <mxGeometry width="60" height="30" as="geometry">
            <mxRectangle width="60" height="30" as="alternateBounds" />
          </mxGeometry>
        </mxCell>
        <mxCell id="sInDDDxYRzVQICZMeEuo-116" value="ActivityName" style="shape=partialRectangle;connectable=0;fillColor=none;top=0;left=0;bottom=0;right=0;align=left;spacingLeft=6;fontStyle=5;overflow=hidden;html=1;whiteSpace=wrap;" vertex="1" parent="sInDDDxYRzVQICZMeEuo-114">
          <mxGeometry x="60" width="120" height="30" as="geometry">
            <mxRectangle width="120" height="30" as="alternateBounds" />
          </mxGeometry>
        </mxCell>
        <mxCell id="sInDDDxYRzVQICZMeEuo-117" value="" style="shape=tableRow;horizontal=0;startSize=0;swimlaneHead=0;swimlaneBody=0;fillColor=none;collapsible=0;dropTarget=0;points=[[0,0.5],[1,0.5]];portConstraint=eastwest;top=0;left=0;right=0;bottom=1;html=1;" vertex="1" parent="sInDDDxYRzVQICZMeEuo-113">
          <mxGeometry y="80" width="180" height="30" as="geometry" />
        </mxCell>
        <mxCell id="sInDDDxYRzVQICZMeEuo-118" value="PK, FK" style="shape=partialRectangle;connectable=0;fillColor=none;top=0;left=0;bottom=0;right=0;fontStyle=1;overflow=hidden;html=1;whiteSpace=wrap;" vertex="1" parent="sInDDDxYRzVQICZMeEuo-117">
          <mxGeometry width="60" height="30" as="geometry">
            <mxRectangle width="60" height="30" as="alternateBounds" />
          </mxGeometry>
        </mxCell>
        <mxCell id="sInDDDxYRzVQICZMeEuo-119" value="PassengerName" style="shape=partialRectangle;connectable=0;fillColor=none;top=0;left=0;bottom=0;right=0;align=left;spacingLeft=6;fontStyle=5;overflow=hidden;html=1;whiteSpace=wrap;" vertex="1" parent="sInDDDxYRzVQICZMeEuo-117">
          <mxGeometry x="60" width="120" height="30" as="geometry">
            <mxRectangle width="120" height="30" as="alternateBounds" />
          </mxGeometry>
        </mxCell>
        <mxCell id="sInDDDxYRzVQICZMeEuo-120" value="" style="shape=tableRow;horizontal=0;startSize=0;swimlaneHead=0;swimlaneBody=0;fillColor=none;collapsible=0;dropTarget=0;points=[[0,0.5],[1,0.5]];portConstraint=eastwest;top=0;left=0;right=0;bottom=0;html=1;" vertex="1" parent="sInDDDxYRzVQICZMeEuo-113">
          <mxGeometry y="110" width="180" height="30" as="geometry" />
        </mxCell>
        <mxCell id="sInDDDxYRzVQICZMeEuo-121" value="" style="shape=partialRectangle;connectable=0;fillColor=none;top=0;left=0;bottom=0;right=0;editable=1;overflow=hidden;html=1;whiteSpace=wrap;" vertex="1" parent="sInDDDxYRzVQICZMeEuo-120">
          <mxGeometry width="60" height="30" as="geometry">
            <mxRectangle width="60" height="30" as="alternateBounds" />
          </mxGeometry>
        </mxCell>
        <mxCell id="sInDDDxYRzVQICZMeEuo-122" value="cost" style="shape=partialRectangle;connectable=0;fillColor=none;top=0;left=0;bottom=0;right=0;align=left;spacingLeft=6;overflow=hidden;html=1;whiteSpace=wrap;" vertex="1" parent="sInDDDxYRzVQICZMeEuo-120">
          <mxGeometry x="60" width="120" height="30" as="geometry">
            <mxRectangle width="120" height="30" as="alternateBounds" />
          </mxGeometry>
        </mxCell>
        <mxCell id="sInDDDxYRzVQICZMeEuo-123" value="" style="shape=tableRow;horizontal=0;startSize=0;swimlaneHead=0;swimlaneBody=0;fillColor=none;collapsible=0;dropTarget=0;points=[[0,0.5],[1,0.5]];portConstraint=eastwest;top=0;left=0;right=0;bottom=0;html=1;" vertex="1" parent="sInDDDxYRzVQICZMeEuo-113">
          <mxGeometry y="140" width="180" height="30" as="geometry" />
        </mxCell>
        <mxCell id="sInDDDxYRzVQICZMeEuo-124" value="" style="shape=partialRectangle;connectable=0;fillColor=none;top=0;left=0;bottom=0;right=0;editable=1;overflow=hidden;html=1;whiteSpace=wrap;" vertex="1" parent="sInDDDxYRzVQICZMeEuo-123">
          <mxGeometry width="60" height="30" as="geometry">
            <mxRectangle width="60" height="30" as="alternateBounds" />
          </mxGeometry>
        </mxCell>
        <mxCell id="sInDDDxYRzVQICZMeEuo-125" value="capacity" style="shape=partialRectangle;connectable=0;fillColor=none;top=0;left=0;bottom=0;right=0;align=left;spacingLeft=6;overflow=hidden;html=1;whiteSpace=wrap;" vertex="1" parent="sInDDDxYRzVQICZMeEuo-123">
          <mxGeometry x="60" width="120" height="30" as="geometry">
            <mxRectangle width="120" height="30" as="alternateBounds" />
          </mxGeometry>
        </mxCell>
        <mxCell id="sInDDDxYRzVQICZMeEuo-126" value="Passenger" style="shape=table;startSize=50;container=1;collapsible=1;childLayout=tableLayout;fixedRows=1;rowLines=0;fontStyle=1;align=center;resizeLast=1;html=1;whiteSpace=wrap;" vertex="1" parent="1">
          <mxGeometry x="2380.14" y="90" width="180" height="200" as="geometry" />
        </mxCell>
        <mxCell id="sInDDDxYRzVQICZMeEuo-127" value="" style="shape=tableRow;horizontal=0;startSize=0;swimlaneHead=0;swimlaneBody=0;fillColor=none;collapsible=0;dropTarget=0;points=[[0,0.5],[1,0.5]];portConstraint=eastwest;top=0;left=0;right=0;bottom=0;html=1;" vertex="1" parent="sInDDDxYRzVQICZMeEuo-126">
          <mxGeometry y="50" width="180" height="30" as="geometry" />
        </mxCell>
        <mxCell id="sInDDDxYRzVQICZMeEuo-128" value="PK" style="shape=partialRectangle;connectable=0;fillColor=none;top=0;left=0;bottom=0;right=0;fontStyle=1;overflow=hidden;html=1;whiteSpace=wrap;" vertex="1" parent="sInDDDxYRzVQICZMeEuo-127">
          <mxGeometry width="60" height="30" as="geometry">
            <mxRectangle width="60" height="30" as="alternateBounds" />
          </mxGeometry>
        </mxCell>
        <mxCell id="sInDDDxYRzVQICZMeEuo-129" value="PassengerName" style="shape=partialRectangle;connectable=0;fillColor=none;top=0;left=0;bottom=0;right=0;align=left;spacingLeft=6;fontStyle=5;overflow=hidden;html=1;whiteSpace=wrap;" vertex="1" parent="sInDDDxYRzVQICZMeEuo-127">
          <mxGeometry x="60" width="120" height="30" as="geometry">
            <mxRectangle width="120" height="30" as="alternateBounds" />
          </mxGeometry>
        </mxCell>
        <mxCell id="sInDDDxYRzVQICZMeEuo-130" value="" style="shape=tableRow;horizontal=0;startSize=0;swimlaneHead=0;swimlaneBody=0;fillColor=none;collapsible=0;dropTarget=0;points=[[0,0.5],[1,0.5]];portConstraint=eastwest;top=0;left=0;right=0;bottom=1;html=1;" vertex="1" parent="sInDDDxYRzVQICZMeEuo-126">
          <mxGeometry y="80" width="180" height="30" as="geometry" />
        </mxCell>
        <mxCell id="sInDDDxYRzVQICZMeEuo-131" value="FK" style="shape=partialRectangle;connectable=0;fillColor=none;top=0;left=0;bottom=0;right=0;fontStyle=1;overflow=hidden;html=1;whiteSpace=wrap;" vertex="1" parent="sInDDDxYRzVQICZMeEuo-130">
          <mxGeometry width="60" height="30" as="geometry">
            <mxRectangle width="60" height="30" as="alternateBounds" />
          </mxGeometry>
        </mxCell>
        <mxCell id="sInDDDxYRzVQICZMeEuo-132" value="TourpackageName" style="shape=partialRectangle;connectable=0;fillColor=none;top=0;left=0;bottom=0;right=0;align=left;spacingLeft=6;fontStyle=5;overflow=hidden;html=1;whiteSpace=wrap;" vertex="1" parent="sInDDDxYRzVQICZMeEuo-130">
          <mxGeometry x="60" width="120" height="30" as="geometry">
            <mxRectangle width="120" height="30" as="alternateBounds" />
          </mxGeometry>
        </mxCell>
        <mxCell id="sInDDDxYRzVQICZMeEuo-133" value="" style="shape=tableRow;horizontal=0;startSize=0;swimlaneHead=0;swimlaneBody=0;fillColor=none;collapsible=0;dropTarget=0;points=[[0,0.5],[1,0.5]];portConstraint=eastwest;top=0;left=0;right=0;bottom=0;html=1;" vertex="1" parent="sInDDDxYRzVQICZMeEuo-126">
          <mxGeometry y="110" width="180" height="30" as="geometry" />
        </mxCell>
        <mxCell id="sInDDDxYRzVQICZMeEuo-134" value="" style="shape=partialRectangle;connectable=0;fillColor=none;top=0;left=0;bottom=0;right=0;editable=1;overflow=hidden;html=1;whiteSpace=wrap;" vertex="1" parent="sInDDDxYRzVQICZMeEuo-133">
          <mxGeometry width="60" height="30" as="geometry">
            <mxRectangle width="60" height="30" as="alternateBounds" />
          </mxGeometry>
        </mxCell>
        <mxCell id="sInDDDxYRzVQICZMeEuo-135" value="Number" style="shape=partialRectangle;connectable=0;fillColor=none;top=0;left=0;bottom=0;right=0;align=left;spacingLeft=6;overflow=hidden;html=1;whiteSpace=wrap;" vertex="1" parent="sInDDDxYRzVQICZMeEuo-133">
          <mxGeometry x="60" width="120" height="30" as="geometry">
            <mxRectangle width="120" height="30" as="alternateBounds" />
          </mxGeometry>
        </mxCell>
        <mxCell id="sInDDDxYRzVQICZMeEuo-136" value="" style="shape=tableRow;horizontal=0;startSize=0;swimlaneHead=0;swimlaneBody=0;fillColor=none;collapsible=0;dropTarget=0;points=[[0,0.5],[1,0.5]];portConstraint=eastwest;top=0;left=0;right=0;bottom=0;html=1;" vertex="1" parent="sInDDDxYRzVQICZMeEuo-126">
          <mxGeometry y="140" width="180" height="30" as="geometry" />
        </mxCell>
        <mxCell id="sInDDDxYRzVQICZMeEuo-137" value="" style="shape=partialRectangle;connectable=0;fillColor=none;top=0;left=0;bottom=0;right=0;editable=1;overflow=hidden;html=1;whiteSpace=wrap;" vertex="1" parent="sInDDDxYRzVQICZMeEuo-136">
          <mxGeometry width="60" height="30" as="geometry">
            <mxRectangle width="60" height="30" as="alternateBounds" />
          </mxGeometry>
        </mxCell>
        <mxCell id="sInDDDxYRzVQICZMeEuo-138" value="CurrentBalance" style="shape=partialRectangle;connectable=0;fillColor=none;top=0;left=0;bottom=0;right=0;align=left;spacingLeft=6;overflow=hidden;html=1;whiteSpace=wrap;" vertex="1" parent="sInDDDxYRzVQICZMeEuo-136">
          <mxGeometry x="60" width="120" height="30" as="geometry">
            <mxRectangle width="120" height="30" as="alternateBounds" />
          </mxGeometry>
        </mxCell>
        <mxCell id="sInDDDxYRzVQICZMeEuo-139" value="" style="shape=tableRow;horizontal=0;startSize=0;swimlaneHead=0;swimlaneBody=0;fillColor=none;collapsible=0;dropTarget=0;points=[[0,0.5],[1,0.5]];portConstraint=eastwest;top=0;left=0;right=0;bottom=0;html=1;" vertex="1" parent="sInDDDxYRzVQICZMeEuo-126">
          <mxGeometry y="170" width="180" height="30" as="geometry" />
        </mxCell>
        <mxCell id="sInDDDxYRzVQICZMeEuo-140" value="" style="shape=partialRectangle;connectable=0;fillColor=none;top=0;left=0;bottom=0;right=0;editable=1;overflow=hidden;html=1;whiteSpace=wrap;" vertex="1" parent="sInDDDxYRzVQICZMeEuo-139">
          <mxGeometry width="60" height="30" as="geometry">
            <mxRectangle width="60" height="30" as="alternateBounds" />
          </mxGeometry>
        </mxCell>
        <mxCell id="sInDDDxYRzVQICZMeEuo-141" value="Type" style="shape=partialRectangle;connectable=0;fillColor=none;top=0;left=0;bottom=0;right=0;align=left;spacingLeft=6;overflow=hidden;html=1;whiteSpace=wrap;" vertex="1" parent="sInDDDxYRzVQICZMeEuo-139">
          <mxGeometry x="60" width="120" height="30" as="geometry">
            <mxRectangle width="120" height="30" as="alternateBounds" />
          </mxGeometry>
        </mxCell>
        <mxCell id="sInDDDxYRzVQICZMeEuo-149" value="&lt;font style=&quot;font-size: 33px;&quot;&gt;Databse Entities Diagram&lt;/font&gt;" style="text;html=1;align=center;verticalAlign=middle;whiteSpace=wrap;rounded=0;" vertex="1" parent="1">
          <mxGeometry x="2840" y="-340" width="250" height="130" as="geometry" />
        </mxCell>
        <mxCell id="sInDDDxYRzVQICZMeEuo-150" value="" style="edgeStyle=entityRelationEdgeStyle;fontSize=12;html=1;endArrow=ERzeroToMany;endFill=1;rounded=0;exitX=1;exitY=0.5;exitDx=0;exitDy=0;entryX=0;entryY=0.5;entryDx=0;entryDy=0;startArrow=ERmandOne;startFill=0;" edge="1" parent="1" source="sInDDDxYRzVQICZMeEuo-127" target="sInDDDxYRzVQICZMeEuo-117">
          <mxGeometry width="100" height="100" relative="1" as="geometry">
            <mxPoint x="2890.14" y="300" as="sourcePoint" />
            <mxPoint x="2990.14" y="200" as="targetPoint" />
          </mxGeometry>
        </mxCell>
        <mxCell id="sInDDDxYRzVQICZMeEuo-151" value="" style="edgeStyle=entityRelationEdgeStyle;fontSize=12;html=1;endArrow=ERzeroToMany;endFill=1;rounded=0;exitX=0;exitY=0.5;exitDx=0;exitDy=0;entryX=1;entryY=0.5;entryDx=0;entryDy=0;startArrow=ERmandOne;startFill=0;" edge="1" parent="1" source="sInDDDxYRzVQICZMeEuo-101" target="sInDDDxYRzVQICZMeEuo-114">
          <mxGeometry width="100" height="100" relative="1" as="geometry">
            <mxPoint x="2980.14" y="220" as="sourcePoint" />
            <mxPoint x="3180.14" y="110" as="targetPoint" />
          </mxGeometry>
        </mxCell>
        <mxCell id="sInDDDxYRzVQICZMeEuo-152" value="" style="edgeStyle=orthogonalEdgeStyle;fontSize=12;html=1;endArrow=ERzeroToOne;endFill=0;rounded=0;startArrow=ERzeroToMany;startFill=0;entryX=0;entryY=0.5;entryDx=0;entryDy=0;exitX=0;exitY=0.5;exitDx=0;exitDy=0;" edge="1" parent="1" source="sInDDDxYRzVQICZMeEuo-127" target="sInDDDxYRzVQICZMeEuo-55">
          <mxGeometry width="100" height="100" relative="1" as="geometry">
            <mxPoint x="2380.14" y="160" as="sourcePoint" />
            <mxPoint x="2360.14" y="500" as="targetPoint" />
            <Array as="points">
              <mxPoint x="2340.14" y="155" />
              <mxPoint x="2340.14" y="505" />
            </Array>
          </mxGeometry>
        </mxCell>
        <mxCell id="sInDDDxYRzVQICZMeEuo-153" value="" style="edgeStyle=entityRelationEdgeStyle;fontSize=12;html=1;endArrow=ERoneToMany;endFill=0;rounded=0;exitX=1;exitY=0.5;exitDx=0;exitDy=0;entryX=0;entryY=0.5;entryDx=0;entryDy=0;startArrow=ERmandOne;startFill=0;" edge="1" parent="1" source="sInDDDxYRzVQICZMeEuo-39" target="sInDDDxYRzVQICZMeEuo-65">
          <mxGeometry width="100" height="100" relative="1" as="geometry">
            <mxPoint x="2990.14" y="350" as="sourcePoint" />
            <mxPoint x="3090.14" y="250" as="targetPoint" />
          </mxGeometry>
        </mxCell>
        <mxCell id="sInDDDxYRzVQICZMeEuo-154" value="" style="edgeStyle=entityRelationEdgeStyle;fontSize=12;html=1;endArrow=ERoneToMany;endFill=0;rounded=0;exitX=0;exitY=0.5;exitDx=0;exitDy=0;entryX=1;entryY=0.5;entryDx=0;entryDy=0;startArrow=ERmandOne;startFill=0;" edge="1" parent="1" source="sInDDDxYRzVQICZMeEuo-78" target="sInDDDxYRzVQICZMeEuo-68">
          <mxGeometry width="100" height="100" relative="1" as="geometry">
            <mxPoint x="3230.14" y="400" as="sourcePoint" />
            <mxPoint x="3010.14" y="260" as="targetPoint" />
            <Array as="points">
              <mxPoint x="3280.14" y="420" />
            </Array>
          </mxGeometry>
        </mxCell>
        <mxCell id="sInDDDxYRzVQICZMeEuo-51" value="TourPackagePassengers" style="shape=table;startSize=50;container=1;collapsible=1;childLayout=tableLayout;fixedRows=1;rowLines=0;fontStyle=1;align=center;resizeLast=1;html=1;whiteSpace=wrap;" vertex="1" parent="1">
          <mxGeometry x="2400.14" y="410" width="180" height="170" as="geometry" />
        </mxCell>
        <mxCell id="sInDDDxYRzVQICZMeEuo-52" value="" style="shape=tableRow;horizontal=0;startSize=0;swimlaneHead=0;swimlaneBody=0;fillColor=none;collapsible=0;dropTarget=0;points=[[0,0.5],[1,0.5]];portConstraint=eastwest;top=0;left=0;right=0;bottom=0;html=1;" vertex="1" parent="sInDDDxYRzVQICZMeEuo-51">
          <mxGeometry y="50" width="180" height="30" as="geometry" />
        </mxCell>
        <mxCell id="sInDDDxYRzVQICZMeEuo-53" value="PK,FK" style="shape=partialRectangle;connectable=0;fillColor=none;top=0;left=0;bottom=0;right=0;fontStyle=1;overflow=hidden;html=1;whiteSpace=wrap;" vertex="1" parent="sInDDDxYRzVQICZMeEuo-52">
          <mxGeometry width="60" height="30" as="geometry">
            <mxRectangle width="60" height="30" as="alternateBounds" />
          </mxGeometry>
        </mxCell>
        <mxCell id="sInDDDxYRzVQICZMeEuo-54" value="PackageName" style="shape=partialRectangle;connectable=0;fillColor=none;top=0;left=0;bottom=0;right=0;align=left;spacingLeft=6;fontStyle=5;overflow=hidden;html=1;whiteSpace=wrap;" vertex="1" parent="sInDDDxYRzVQICZMeEuo-52">
          <mxGeometry x="60" width="120" height="30" as="geometry">
            <mxRectangle width="120" height="30" as="alternateBounds" />
          </mxGeometry>
        </mxCell>
        <mxCell id="sInDDDxYRzVQICZMeEuo-55" value="" style="shape=tableRow;horizontal=0;startSize=0;swimlaneHead=0;swimlaneBody=0;fillColor=none;collapsible=0;dropTarget=0;points=[[0,0.5],[1,0.5]];portConstraint=eastwest;top=0;left=0;right=0;bottom=1;html=1;" vertex="1" parent="sInDDDxYRzVQICZMeEuo-51">
          <mxGeometry y="80" width="180" height="30" as="geometry" />
        </mxCell>
        <mxCell id="sInDDDxYRzVQICZMeEuo-56" value="PK,FK" style="shape=partialRectangle;connectable=0;fillColor=none;top=0;left=0;bottom=0;right=0;fontStyle=1;overflow=hidden;html=1;whiteSpace=wrap;" vertex="1" parent="sInDDDxYRzVQICZMeEuo-55">
          <mxGeometry width="60" height="30" as="geometry">
            <mxRectangle width="60" height="30" as="alternateBounds" />
          </mxGeometry>
        </mxCell>
        <mxCell id="sInDDDxYRzVQICZMeEuo-57" value="PassengerName" style="shape=partialRectangle;connectable=0;fillColor=none;top=0;left=0;bottom=0;right=0;align=left;spacingLeft=6;fontStyle=5;overflow=hidden;html=1;whiteSpace=wrap;" vertex="1" parent="sInDDDxYRzVQICZMeEuo-55">
          <mxGeometry x="60" width="120" height="30" as="geometry">
            <mxRectangle width="120" height="30" as="alternateBounds" />
          </mxGeometry>
        </mxCell>
        <mxCell id="sInDDDxYRzVQICZMeEuo-58" value="" style="shape=tableRow;horizontal=0;startSize=0;swimlaneHead=0;swimlaneBody=0;fillColor=none;collapsible=0;dropTarget=0;points=[[0,0.5],[1,0.5]];portConstraint=eastwest;top=0;left=0;right=0;bottom=0;html=1;" vertex="1" parent="sInDDDxYRzVQICZMeEuo-51">
          <mxGeometry y="110" width="180" height="30" as="geometry" />
        </mxCell>
        <mxCell id="sInDDDxYRzVQICZMeEuo-59" value="" style="shape=partialRectangle;connectable=0;fillColor=none;top=0;left=0;bottom=0;right=0;editable=1;overflow=hidden;html=1;whiteSpace=wrap;" vertex="1" parent="sInDDDxYRzVQICZMeEuo-58">
          <mxGeometry width="60" height="30" as="geometry">
            <mxRectangle width="60" height="30" as="alternateBounds" />
          </mxGeometry>
        </mxCell>
        <mxCell id="sInDDDxYRzVQICZMeEuo-60" value="" style="shape=partialRectangle;connectable=0;fillColor=none;top=0;left=0;bottom=0;right=0;align=left;spacingLeft=6;overflow=hidden;html=1;whiteSpace=wrap;" vertex="1" parent="sInDDDxYRzVQICZMeEuo-58">
          <mxGeometry x="60" width="120" height="30" as="geometry">
            <mxRectangle width="120" height="30" as="alternateBounds" />
          </mxGeometry>
        </mxCell>
        <mxCell id="sInDDDxYRzVQICZMeEuo-61" value="" style="shape=tableRow;horizontal=0;startSize=0;swimlaneHead=0;swimlaneBody=0;fillColor=none;collapsible=0;dropTarget=0;points=[[0,0.5],[1,0.5]];portConstraint=eastwest;top=0;left=0;right=0;bottom=0;html=1;" vertex="1" parent="sInDDDxYRzVQICZMeEuo-51">
          <mxGeometry y="140" width="180" height="30" as="geometry" />
        </mxCell>
        <mxCell id="sInDDDxYRzVQICZMeEuo-62" value="" style="shape=partialRectangle;connectable=0;fillColor=none;top=0;left=0;bottom=0;right=0;editable=1;overflow=hidden;html=1;whiteSpace=wrap;" vertex="1" parent="sInDDDxYRzVQICZMeEuo-61">
          <mxGeometry width="60" height="30" as="geometry">
            <mxRectangle width="60" height="30" as="alternateBounds" />
          </mxGeometry>
        </mxCell>
        <mxCell id="sInDDDxYRzVQICZMeEuo-63" value="" style="shape=partialRectangle;connectable=0;fillColor=none;top=0;left=0;bottom=0;right=0;align=left;spacingLeft=6;overflow=hidden;html=1;whiteSpace=wrap;" vertex="1" parent="sInDDDxYRzVQICZMeEuo-61">
          <mxGeometry x="60" width="120" height="30" as="geometry">
            <mxRectangle width="120" height="30" as="alternateBounds" />
          </mxGeometry>
        </mxCell>
        <mxCell id="sInDDDxYRzVQICZMeEuo-77" value="Destination" style="shape=table;startSize=50;container=1;collapsible=1;childLayout=tableLayout;fixedRows=1;rowLines=0;fontStyle=1;align=center;resizeLast=1;html=1;whiteSpace=wrap;" vertex="1" parent="1">
          <mxGeometry x="3220.14" y="360" width="180" height="170" as="geometry" />
        </mxCell>
        <mxCell id="sInDDDxYRzVQICZMeEuo-78" value="" style="shape=tableRow;horizontal=0;startSize=0;swimlaneHead=0;swimlaneBody=0;fillColor=none;collapsible=0;dropTarget=0;points=[[0,0.5],[1,0.5]];portConstraint=eastwest;top=0;left=0;right=0;bottom=0;html=1;" vertex="1" parent="sInDDDxYRzVQICZMeEuo-77">
          <mxGeometry y="50" width="180" height="30" as="geometry" />
        </mxCell>
        <mxCell id="sInDDDxYRzVQICZMeEuo-79" value="PK" style="shape=partialRectangle;connectable=0;fillColor=none;top=0;left=0;bottom=0;right=0;fontStyle=1;overflow=hidden;html=1;whiteSpace=wrap;" vertex="1" parent="sInDDDxYRzVQICZMeEuo-78">
          <mxGeometry width="60" height="30" as="geometry">
            <mxRectangle width="60" height="30" as="alternateBounds" />
          </mxGeometry>
        </mxCell>
        <mxCell id="sInDDDxYRzVQICZMeEuo-80" value="DestinationName" style="shape=partialRectangle;connectable=0;fillColor=none;top=0;left=0;bottom=0;right=0;align=left;spacingLeft=6;fontStyle=5;overflow=hidden;html=1;whiteSpace=wrap;" vertex="1" parent="sInDDDxYRzVQICZMeEuo-78">
          <mxGeometry x="60" width="120" height="30" as="geometry">
            <mxRectangle width="120" height="30" as="alternateBounds" />
          </mxGeometry>
        </mxCell>
        <mxCell id="sInDDDxYRzVQICZMeEuo-81" value="" style="shape=tableRow;horizontal=0;startSize=0;swimlaneHead=0;swimlaneBody=0;fillColor=none;collapsible=0;dropTarget=0;points=[[0,0.5],[1,0.5]];portConstraint=eastwest;top=0;left=0;right=0;bottom=1;html=1;" vertex="1" parent="sInDDDxYRzVQICZMeEuo-77">
          <mxGeometry y="80" width="180" height="30" as="geometry" />
        </mxCell>
        <mxCell id="sInDDDxYRzVQICZMeEuo-82" value="" style="shape=partialRectangle;connectable=0;fillColor=none;top=0;left=0;bottom=0;right=0;fontStyle=1;overflow=hidden;html=1;whiteSpace=wrap;" vertex="1" parent="sInDDDxYRzVQICZMeEuo-81">
          <mxGeometry width="60" height="30" as="geometry">
            <mxRectangle width="60" height="30" as="alternateBounds" />
          </mxGeometry>
        </mxCell>
        <mxCell id="sInDDDxYRzVQICZMeEuo-83" value="" style="shape=partialRectangle;connectable=0;fillColor=none;top=0;left=0;bottom=0;right=0;align=left;spacingLeft=6;fontStyle=5;overflow=hidden;html=1;whiteSpace=wrap;" vertex="1" parent="sInDDDxYRzVQICZMeEuo-81">
          <mxGeometry x="60" width="120" height="30" as="geometry">
            <mxRectangle width="120" height="30" as="alternateBounds" />
          </mxGeometry>
        </mxCell>
        <mxCell id="sInDDDxYRzVQICZMeEuo-84" value="" style="shape=tableRow;horizontal=0;startSize=0;swimlaneHead=0;swimlaneBody=0;fillColor=none;collapsible=0;dropTarget=0;points=[[0,0.5],[1,0.5]];portConstraint=eastwest;top=0;left=0;right=0;bottom=0;html=1;" vertex="1" parent="sInDDDxYRzVQICZMeEuo-77">
          <mxGeometry y="110" width="180" height="30" as="geometry" />
        </mxCell>
        <mxCell id="sInDDDxYRzVQICZMeEuo-85" value="" style="shape=partialRectangle;connectable=0;fillColor=none;top=0;left=0;bottom=0;right=0;editable=1;overflow=hidden;html=1;whiteSpace=wrap;" vertex="1" parent="sInDDDxYRzVQICZMeEuo-84">
          <mxGeometry width="60" height="30" as="geometry">
            <mxRectangle width="60" height="30" as="alternateBounds" />
          </mxGeometry>
        </mxCell>
        <mxCell id="sInDDDxYRzVQICZMeEuo-86" value="" style="shape=partialRectangle;connectable=0;fillColor=none;top=0;left=0;bottom=0;right=0;align=left;spacingLeft=6;overflow=hidden;html=1;whiteSpace=wrap;" vertex="1" parent="sInDDDxYRzVQICZMeEuo-84">
          <mxGeometry x="60" width="120" height="30" as="geometry">
            <mxRectangle width="120" height="30" as="alternateBounds" />
          </mxGeometry>
        </mxCell>
        <mxCell id="sInDDDxYRzVQICZMeEuo-87" value="" style="shape=tableRow;horizontal=0;startSize=0;swimlaneHead=0;swimlaneBody=0;fillColor=none;collapsible=0;dropTarget=0;points=[[0,0.5],[1,0.5]];portConstraint=eastwest;top=0;left=0;right=0;bottom=0;html=1;" vertex="1" parent="sInDDDxYRzVQICZMeEuo-77">
          <mxGeometry y="140" width="180" height="30" as="geometry" />
        </mxCell>
        <mxCell id="sInDDDxYRzVQICZMeEuo-88" value="" style="shape=partialRectangle;connectable=0;fillColor=none;top=0;left=0;bottom=0;right=0;editable=1;overflow=hidden;html=1;whiteSpace=wrap;" vertex="1" parent="sInDDDxYRzVQICZMeEuo-87">
          <mxGeometry width="60" height="30" as="geometry">
            <mxRectangle width="60" height="30" as="alternateBounds" />
          </mxGeometry>
        </mxCell>
        <mxCell id="sInDDDxYRzVQICZMeEuo-89" value="" style="shape=partialRectangle;connectable=0;fillColor=none;top=0;left=0;bottom=0;right=0;align=left;spacingLeft=6;overflow=hidden;html=1;whiteSpace=wrap;" vertex="1" parent="sInDDDxYRzVQICZMeEuo-87">
          <mxGeometry x="60" width="120" height="30" as="geometry">
            <mxRectangle width="120" height="30" as="alternateBounds" />
          </mxGeometry>
        </mxCell>
        <mxCell id="sInDDDxYRzVQICZMeEuo-156" value="" style="edgeStyle=entityRelationEdgeStyle;fontSize=12;html=1;endArrow=ERmandOne;endFill=0;rounded=0;exitX=1;exitY=0.5;exitDx=0;exitDy=0;entryX=0;entryY=0.5;entryDx=0;entryDy=0;startArrow=ERzeroToMany;startFill=0;" edge="1" parent="1" source="sInDDDxYRzVQICZMeEuo-52" target="sInDDDxYRzVQICZMeEuo-39">
          <mxGeometry width="100" height="100" relative="1" as="geometry">
            <mxPoint x="2570.14" y="340" as="sourcePoint" />
            <mxPoint x="2820.14" y="240" as="targetPoint" />
          </mxGeometry>
        </mxCell>
        <mxCell id="sInDDDxYRzVQICZMeEuo-157" value="&lt;h1 style=&quot;font-size: 31px;&quot;&gt;Assumptions&lt;/h1&gt;&lt;p style=&quot;font-size: 16px;&quot;&gt;&lt;/p&gt;&lt;ul style=&quot;font-size: 16px;&quot;&gt;&lt;li&gt;A passenger can enroll in at-max one tour package&lt;/li&gt;&lt;li&gt;A Destination object is only made when needed to be associated with an tour package&lt;/li&gt;&lt;li style=&quot;border-color: var(--border-color);&quot;&gt;An Activity object is only made when needed to be associated with an destination&lt;/li&gt;&lt;/ul&gt;&lt;p&gt;&lt;/p&gt;" style="text;html=1;spacing=5;spacingTop=-20;whiteSpace=wrap;overflow=hidden;rounded=0;" vertex="1" parent="1">
          <mxGeometry x="3780" y="-280" width="340" height="230" as="geometry" />
        </mxCell>
        <mxCell id="sInDDDxYRzVQICZMeEuo-158" value="" style="edgeStyle=orthogonalEdgeStyle;fontSize=12;html=1;endArrow=ERmandOne;endFill=0;rounded=0;startArrow=ERzeroToMany;startFill=0;entryX=1;entryY=0.5;entryDx=0;entryDy=0;exitX=1;exitY=0.5;exitDx=0;exitDy=0;" edge="1" parent="1" source="sInDDDxYRzVQICZMeEuo-104" target="sInDDDxYRzVQICZMeEuo-78">
          <mxGeometry width="100" height="100" relative="1" as="geometry">
            <mxPoint x="3470.14" y="130" as="sourcePoint" />
            <mxPoint x="3490.14" y="480" as="targetPoint" />
            <Array as="points">
              <mxPoint x="3470" y="195" />
              <mxPoint x="3470" y="425" />
            </Array>
          </mxGeometry>
        </mxCell>
        <mxCell id="sInDDDxYRzVQICZMeEuo-159" value="&lt;h1&gt;&lt;font style=&quot;font-size: 29px;&quot;&gt;Note :&amp;nbsp;&lt;/font&gt;&lt;/h1&gt;&lt;p style=&quot;font-size: 15px;&quot;&gt;To acces all the activities a passenger is enrolled in, we can either have a data member called &#39;enrolledActivities&#39; or&amp;nbsp;&lt;span style=&quot;background-color: initial;&quot;&gt;simply browse through all the activities under each destination of the enrolled package.&lt;/span&gt;&lt;/p&gt;&lt;p style=&quot;font-size: 15px;&quot;&gt;Desicsion shall be made on basis of specific needs and what to trade off, time or space !&lt;/p&gt;&lt;p style=&quot;font-size: 15px;&quot;&gt;&lt;br&gt;&lt;/p&gt;&lt;p style=&quot;font-size: 15px;&quot;&gt;Databse entities are designed assuming implemetation with a SQLite Databse&lt;/p&gt;" style="text;html=1;spacing=5;spacingTop=-20;whiteSpace=wrap;overflow=hidden;rounded=0;" vertex="1" parent="1">
          <mxGeometry x="3780" y="45" width="470" height="435" as="geometry" />
        </mxCell>
        <mxCell id="sInDDDxYRzVQICZMeEuo-162" value="StandardPassenger" style="swimlane;fontStyle=1;align=center;verticalAlign=top;childLayout=stackLayout;horizontal=1;startSize=26;horizontalStack=0;resizeParent=1;resizeParentMax=0;resizeLast=0;collapsible=1;marginBottom=0;whiteSpace=wrap;html=1;" vertex="1" parent="1">
          <mxGeometry x="820" y="174" width="280" height="116" as="geometry">
            <mxRectangle x="440" y="190" width="110" height="30" as="alternateBounds" />
          </mxGeometry>
        </mxCell>
        <mxCell id="sInDDDxYRzVQICZMeEuo-164" value="" style="line;strokeWidth=1;fillColor=none;align=left;verticalAlign=middle;spacingTop=-1;spacingLeft=3;spacingRight=3;rotatable=0;labelPosition=right;points=[];portConstraint=eastwest;strokeColor=inherit;" vertex="1" parent="sInDDDxYRzVQICZMeEuo-162">
          <mxGeometry y="26" width="280" height="8" as="geometry" />
        </mxCell>
        <mxCell id="sInDDDxYRzVQICZMeEuo-165" value="&amp;nbsp;+ StandardPassenger(passengerName,&amp;nbsp; passengerNumber, currentBalance)&lt;br&gt;&lt;br&gt;&amp;nbsp;+ enrollInActivity(Activity)&lt;br&gt;    " style="text;strokeColor=none;fillColor=none;align=left;verticalAlign=top;spacingLeft=4;spacingRight=4;overflow=hidden;rotatable=0;points=[[0,0.5],[1,0.5]];portConstraint=eastwest;whiteSpace=wrap;html=1;" vertex="1" parent="sInDDDxYRzVQICZMeEuo-162">
          <mxGeometry y="34" width="280" height="82" as="geometry" />
        </mxCell>
        <mxCell id="sInDDDxYRzVQICZMeEuo-166" value="" style="endArrow=none;html=1;edgeStyle=orthogonalEdgeStyle;rounded=0;exitX=0.998;exitY=0.052;exitDx=0;exitDy=0;exitPerimeter=0;entryX=-0.015;entryY=0.128;entryDx=0;entryDy=0;entryPerimeter=0;" edge="1" parent="1" source="3XWq_ZR8eSszFhjnecql-50" target="sInDDDxYRzVQICZMeEuo-162">
          <mxGeometry relative="1" as="geometry">
            <mxPoint x="270" y="580" as="sourcePoint" />
            <mxPoint x="430" y="580" as="targetPoint" />
            <Array as="points">
              <mxPoint x="780" y="316" />
              <mxPoint x="780" y="189" />
            </Array>
          </mxGeometry>
        </mxCell>
        <mxCell id="sInDDDxYRzVQICZMeEuo-167" value="parent" style="edgeLabel;resizable=0;html=1;align=left;verticalAlign=bottom;" connectable="0" vertex="1" parent="sInDDDxYRzVQICZMeEuo-166">
          <mxGeometry x="-1" relative="1" as="geometry" />
        </mxCell>
        <mxCell id="sInDDDxYRzVQICZMeEuo-168" value="child" style="edgeLabel;resizable=0;html=1;align=right;verticalAlign=bottom;" connectable="0" vertex="1" parent="sInDDDxYRzVQICZMeEuo-166">
          <mxGeometry x="1" relative="1" as="geometry" />
        </mxCell>
        <mxCell id="sInDDDxYRzVQICZMeEuo-169" value="GoldPassenger" style="swimlane;fontStyle=1;align=center;verticalAlign=top;childLayout=stackLayout;horizontal=1;startSize=26;horizontalStack=0;resizeParent=1;resizeParentMax=0;resizeLast=0;collapsible=1;marginBottom=0;whiteSpace=wrap;html=1;" vertex="1" parent="1">
          <mxGeometry x="830" y="330" width="280" height="116" as="geometry">
            <mxRectangle x="440" y="190" width="110" height="30" as="alternateBounds" />
          </mxGeometry>
        </mxCell>
        <mxCell id="sInDDDxYRzVQICZMeEuo-170" value="" style="line;strokeWidth=1;fillColor=none;align=left;verticalAlign=middle;spacingTop=-1;spacingLeft=3;spacingRight=3;rotatable=0;labelPosition=right;points=[];portConstraint=eastwest;strokeColor=inherit;" vertex="1" parent="sInDDDxYRzVQICZMeEuo-169">
          <mxGeometry y="26" width="280" height="8" as="geometry" />
        </mxCell>
        <mxCell id="sInDDDxYRzVQICZMeEuo-171" value="&amp;nbsp;+ GoldPassenger(passengerName,&amp;nbsp; passengerNumber, currentBalance)&lt;br&gt;&lt;br&gt;&amp;nbsp;+ enrollInActivity(Activity)&lt;br&gt;    " style="text;strokeColor=none;fillColor=none;align=left;verticalAlign=top;spacingLeft=4;spacingRight=4;overflow=hidden;rotatable=0;points=[[0,0.5],[1,0.5]];portConstraint=eastwest;whiteSpace=wrap;html=1;" vertex="1" parent="sInDDDxYRzVQICZMeEuo-169">
          <mxGeometry y="34" width="280" height="82" as="geometry" />
        </mxCell>
        <mxCell id="sInDDDxYRzVQICZMeEuo-172" value="PremiumPassenger" style="swimlane;fontStyle=1;align=center;verticalAlign=top;childLayout=stackLayout;horizontal=1;startSize=26;horizontalStack=0;resizeParent=1;resizeParentMax=0;resizeLast=0;collapsible=1;marginBottom=0;whiteSpace=wrap;html=1;" vertex="1" parent="1">
          <mxGeometry x="830" y="484" width="280" height="116" as="geometry">
            <mxRectangle x="440" y="190" width="110" height="30" as="alternateBounds" />
          </mxGeometry>
        </mxCell>
        <mxCell id="sInDDDxYRzVQICZMeEuo-173" value="" style="line;strokeWidth=1;fillColor=none;align=left;verticalAlign=middle;spacingTop=-1;spacingLeft=3;spacingRight=3;rotatable=0;labelPosition=right;points=[];portConstraint=eastwest;strokeColor=inherit;" vertex="1" parent="sInDDDxYRzVQICZMeEuo-172">
          <mxGeometry y="26" width="280" height="8" as="geometry" />
        </mxCell>
        <mxCell id="sInDDDxYRzVQICZMeEuo-174" value="&amp;nbsp;+ PremiumPassenger(passengerName,&amp;nbsp; passengerNumber, currentBalance)&lt;br&gt;&lt;br&gt;&amp;nbsp;+ enrollInActivity(Activity)&lt;br&gt;    " style="text;strokeColor=none;fillColor=none;align=left;verticalAlign=top;spacingLeft=4;spacingRight=4;overflow=hidden;rotatable=0;points=[[0,0.5],[1,0.5]];portConstraint=eastwest;whiteSpace=wrap;html=1;" vertex="1" parent="sInDDDxYRzVQICZMeEuo-172">
          <mxGeometry y="34" width="280" height="82" as="geometry" />
        </mxCell>
        <mxCell id="sInDDDxYRzVQICZMeEuo-175" value="" style="endArrow=none;html=1;edgeStyle=orthogonalEdgeStyle;rounded=0;entryX=-0.004;entryY=0.147;entryDx=0;entryDy=0;entryPerimeter=0;" edge="1" parent="1" source="3XWq_ZR8eSszFhjnecql-51" target="sInDDDxYRzVQICZMeEuo-169">
          <mxGeometry relative="1" as="geometry">
            <mxPoint x="739" y="346" as="sourcePoint" />
            <mxPoint x="836" y="95" as="targetPoint" />
          </mxGeometry>
        </mxCell>
        <mxCell id="sInDDDxYRzVQICZMeEuo-176" value="parent" style="edgeLabel;resizable=0;html=1;align=left;verticalAlign=bottom;" connectable="0" vertex="1" parent="sInDDDxYRzVQICZMeEuo-175">
          <mxGeometry x="-1" relative="1" as="geometry" />
        </mxCell>
        <mxCell id="sInDDDxYRzVQICZMeEuo-177" value="child" style="edgeLabel;resizable=0;html=1;align=right;verticalAlign=bottom;" connectable="0" vertex="1" parent="sInDDDxYRzVQICZMeEuo-175">
          <mxGeometry x="1" relative="1" as="geometry" />
        </mxCell>
        <mxCell id="sInDDDxYRzVQICZMeEuo-178" value="" style="endArrow=none;html=1;edgeStyle=orthogonalEdgeStyle;rounded=0;entryX=-0.008;entryY=0.118;entryDx=0;entryDy=0;entryPerimeter=0;" edge="1" parent="1" source="3XWq_ZR8eSszFhjnecql-53" target="sInDDDxYRzVQICZMeEuo-172">
          <mxGeometry relative="1" as="geometry">
            <mxPoint x="740" y="480" as="sourcePoint" />
            <mxPoint x="839" y="357" as="targetPoint" />
          </mxGeometry>
        </mxCell>
        <mxCell id="sInDDDxYRzVQICZMeEuo-179" value="parent" style="edgeLabel;resizable=0;html=1;align=left;verticalAlign=bottom;" connectable="0" vertex="1" parent="sInDDDxYRzVQICZMeEuo-178">
          <mxGeometry x="-1" relative="1" as="geometry" />
        </mxCell>
        <mxCell id="sInDDDxYRzVQICZMeEuo-180" value="child" style="edgeLabel;resizable=0;html=1;align=right;verticalAlign=bottom;" connectable="0" vertex="1" parent="sInDDDxYRzVQICZMeEuo-178">
          <mxGeometry x="1" relative="1" as="geometry" />
        </mxCell>
      </root>
    </mxGraphModel>
  </diagram>
</mxfile>
